# xmcd
#
# Track frame offsets:
# 150
# 19556
# 40152
# 60427
# 80350
# 97448
# 113575
# 132144
# 151956
# 171473
# 187442
# 207566
# 224552
# 241115
# 257202
# 288763
#
# Disc length: 4176 seconds
#
#
# Revision: 3
# Processed by: cddbd v1.5PL3 Copyright (c) Steve Scherf et al.
# Submitted via: FreeRIP 2.60 
#
DISCID=ea104e10
DTITLE=유리상자베스트앨범 - 1997;2003YURISANGJABESTALBUM
DYEAR=2003
DGENRE=Ballad
TTITLE0=이제야 이별인걸
TTITLE1=신부에게
TTITLE2=지금 우리처럼
TTITLE3=Two men story
TTITLE4=날 친구라 부르는 너에게
TTITLE5=좋은날
TTITLE6=내가 더 잘해 볼게요
TTITLE7=거짓말이라도
TTITLE8=처음으로
TTITLE9=웃어요
TTITLE10=Rainy night
TTITLE11=내사람
TTITLE12=사랑해도 될까요
TTITLE13=아름다운세상
TTITLE14=세상에서 가장 슬픈 일은 끝이 보이는 사랑을 하는 것
TTITLE15=신부에게 m/v
EXTD=
EXTT0=
EXTT1=
EXTT2=
EXTT3=
EXTT4=
EXTT5=
EXTT6=
EXTT7=
EXTT8=
EXTT9=
EXTT10=
EXTT11=
EXTT12=
EXTT13=
EXTT14=
EXTT15=
PLAYORDER=
